<svg version="1.1" xmlns="http://www.w3.org/2000/svg" viewBox="0 0 1387.699445477815 442.0842541989724" width="2775.39889095563" height="884.1685083979448">
  <!-- svg-source:excalidraw -->
  
  <defs>
    <style class="style-fonts">
      @font-face {
        font-family: "Virgil";
        src: url("https://excalidraw.com/Virgil.woff2");
      }
      @font-face {
        font-family: "Cascadia";
        src: url("https://excalidraw.com/Cascadia.woff2");
      }
    </style>
  </defs>
  <rect x="0" y="0" width="1387.699445477815" height="442.0842541989724" fill="#ffffff"></rect><g stroke-linecap="round" transform="translate(11.267403359177933 10) rotate(0 126 58)"><path d="M29 0 M29 0 C94.2 -1.23, 156.78 -1.12, 223 0 M29 0 C104.94 0.47, 180.49 0.12, 223 0 M223 0 C243.43 -0.13, 252.99 8.18, 252 29 M223 0 C240.61 1.07, 252.49 8.16, 252 29 M252 29 C253.55 43.07, 252.27 55.25, 252 87 M252 29 C253.32 50.81, 252.48 73.55, 252 87 M252 87 C253.5 106.5, 244.01 116.82, 223 116 M252 87 C253.52 106.73, 241.36 115.75, 223 116 M223 116 C149.01 116, 71.78 118.73, 29 116 M223 116 C174.62 114.26, 126.14 115.55, 29 116 M29 116 C8.81 115.92, -1.25 107.92, 0 87 M29 116 C11.19 114.52, 1.41 104.1, 0 87 M0 87 C1.6 68.43, 0.79 53.93, 0 29 M0 87 C-0.55 67.34, -0.58 46.42, 0 29 M0 29 C1.26 9.13, 9.33 -0.69, 29 0 M0 29 C-0.68 9.02, 7.66 0.69, 29 0" stroke="#000000" stroke-width="1" fill="none"></path></g><g stroke-linecap="round" transform="translate(557.0182311368524 14.816850839794483) rotate(0 126 58)"><path d="M29 0 M29 0 C94.2 -1.23, 156.78 -1.12, 223 0 M29 0 C104.94 0.47, 180.49 0.12, 223 0 M223 0 C243.43 -0.13, 252.99 8.18, 252 29 M223 0 C240.61 1.07, 252.49 8.16, 252 29 M252 29 C253.55 43.07, 252.27 55.25, 252 87 M252 29 C253.32 50.81, 252.48 73.55, 252 87 M252 87 C253.5 106.5, 244.01 116.82, 223 116 M252 87 C253.52 106.73, 241.36 115.75, 223 116 M223 116 C149.01 116, 71.78 118.73, 29 116 M223 116 C174.62 114.26, 126.14 115.55, 29 116 M29 116 C8.81 115.92, -1.25 107.92, 0 87 M29 116 C11.19 114.52, 1.41 104.1, 0 87 M0 87 C1.6 68.43, 0.79 53.93, 0 29 M0 87 C-0.55 67.34, -0.58 46.42, 0 29 M0 29 C1.26 9.13, 9.33 -0.69, 29 0 M0 29 C-0.68 9.02, 7.66 0.69, 29 0" stroke="#000000" stroke-width="1" fill="none"></path></g><g stroke-linecap="round" transform="translate(1123.8825946380205 13.732596640822038) rotate(0 126 58)"><path d="M29 0 M29 0 C94.2 -1.23, 156.78 -1.12, 223 0 M29 0 C104.94 0.47, 180.49 0.12, 223 0 M223 0 C243.43 -0.13, 252.99 8.18, 252 29 M223 0 C240.61 1.07, 252.49 8.16, 252 29 M252 29 C253.55 43.07, 252.27 55.25, 252 87 M252 29 C253.32 50.81, 252.48 73.55, 252 87 M252 87 C253.5 106.5, 244.01 116.82, 223 116 M252 87 C253.52 106.73, 241.36 115.75, 223 116 M223 116 C149.01 116, 71.78 118.73, 29 116 M223 116 C174.62 114.26, 126.14 115.55, 29 116 M29 116 C8.81 115.92, -1.25 107.92, 0 87 M29 116 C11.19 114.52, 1.41 104.1, 0 87 M0 87 C1.6 68.43, 0.79 53.93, 0 29 M0 87 C-0.55 67.34, -0.58 46.42, 0 29 M0 29 C1.26 9.13, 9.33 -0.69, 29 0 M0 29 C-0.68 9.02, 7.66 0.69, 29 0" stroke="#000000" stroke-width="1" fill="none"></path></g><g stroke-linecap="round" transform="translate(10 306.26740335917793) rotate(0 126 58)"><path d="M29 0 M29 0 C94.2 -1.23, 156.78 -1.12, 223 0 M29 0 C104.94 0.47, 180.49 0.12, 223 0 M223 0 C243.43 -0.13, 252.99 8.18, 252 29 M223 0 C240.61 1.07, 252.49 8.16, 252 29 M252 29 C253.55 43.07, 252.27 55.25, 252 87 M252 29 C253.32 50.81, 252.48 73.55, 252 87 M252 87 C253.5 106.5, 244.01 116.82, 223 116 M252 87 C253.52 106.73, 241.36 115.75, 223 116 M223 116 C149.01 116, 71.78 118.73, 29 116 M223 116 C174.62 114.26, 126.14 115.55, 29 116 M29 116 C8.81 115.92, -1.25 107.92, 0 87 M29 116 C11.19 114.52, 1.41 104.1, 0 87 M0 87 C1.6 68.43, 0.79 53.93, 0 29 M0 87 C-0.55 67.34, -0.58 46.42, 0 29 M0 29 C1.26 9.13, 9.33 -0.69, 29 0 M0 29 C-0.68 9.02, 7.66 0.69, 29 0" stroke="#000000" stroke-width="1" fill="none"></path></g><g stroke-linecap="round" transform="translate(1125.699445477815 316.0842541989724) rotate(0 126 58)"><path d="M29 0 M29 0 C94.2 -1.23, 156.78 -1.12, 223 0 M29 0 C104.94 0.47, 180.49 0.12, 223 0 M223 0 C243.43 -0.13, 252.99 8.18, 252 29 M223 0 C240.61 1.07, 252.49 8.16, 252 29 M252 29 C253.55 43.07, 252.27 55.25, 252 87 M252 29 C253.32 50.81, 252.48 73.55, 252 87 M252 87 C253.5 106.5, 244.01 116.82, 223 116 M252 87 C253.52 106.73, 241.36 115.75, 223 116 M223 116 C149.01 116, 71.78 118.73, 29 116 M223 116 C174.62 114.26, 126.14 115.55, 29 116 M29 116 C8.81 115.92, -1.25 107.92, 0 87 M29 116 C11.19 114.52, 1.41 104.1, 0 87 M0 87 C1.6 68.43, 0.79 53.93, 0 29 M0 87 C-0.55 67.34, -0.58 46.42, 0 29 M0 29 C1.26 9.13, 9.33 -0.69, 29 0 M0 29 C-0.68 9.02, 7.66 0.69, 29 0" stroke="#000000" stroke-width="1" fill="none"></path></g><g stroke-linecap="round"><g transform="translate(271.2422707370366 40.64802482217294) rotate(0 139.70292951771094 1.9031826272613586)"><path d="M-0.87 1.12 C45.65 1.48, 233.54 2.98, 280.28 3.15 M0.87 0.66 C47.22 0.6, 233.54 0.97, 279.88 1.41" stroke="#000000" stroke-width="1" fill="none"></path></g><g transform="translate(271.2422707370366 40.64802482217294) rotate(0 139.70292951771094 1.9031826272613586)"><path d="M253.5 13.28 C264 8.24, 273.56 3.22, 281.1 2.26 M251.95 11.16 C260.89 8.41, 272.02 4.71, 280.72 1.99" stroke="#000000" stroke-width="1" fill="none"></path></g><g transform="translate(271.2422707370366 40.64802482217294) rotate(0 139.70292951771094 1.9031826272613586)"><path d="M253.61 -7.24 C264.22 -4.13, 273.75 -0.99, 281.1 2.26 M252.05 -9.36 C261.14 -4.69, 272.23 -0.97, 280.72 1.99" stroke="#000000" stroke-width="1" fill="none"></path></g></g><mask></mask><g stroke-linecap="round"><g transform="translate(552.8317708659495 92.24653531883692) rotate(0 -142.69194318542557 0.822005004040733)"><path d="M0.92 0.41 C-46.75 0.62, -237.44 0.62, -285.28 0.56 M-0.06 -0.42 C-47.96 0.06, -239.02 1.82, -286.3 2.06" stroke="#000000" stroke-width="1" fill="none"></path></g><g transform="translate(552.8317708659495 92.24653531883692) rotate(0 -142.69194318542557 0.822005004040733)"><path d="M-257.5 -8.64 C-268.53 -6.03, -279.55 -1.38, -287.12 3.96 M-257.84 -7.46 C-268.51 -4.7, -280.39 0, -286.59 1.37" stroke="#000000" stroke-width="1" fill="none"></path></g><g transform="translate(552.8317708659495 92.24653531883692) rotate(0 -142.69194318542557 0.822005004040733)"><path d="M-257.35 11.88 C-268.31 7.08, -279.39 4.31, -287.12 3.96 M-257.68 13.06 C-268.61 8, -280.54 4.88, -286.59 1.37" stroke="#000000" stroke-width="1" fill="none"></path></g></g><mask></mask><g stroke-linecap="round"><g transform="translate(811.9414369509573 45.78373549202661) rotate(0 152.95883162574512 -0.48515639087732154)"><path d="M-0.49 -0.5 C50.53 -0.43, 255.14 0.88, 306.41 0.9 M1.45 -1.81 C52.29 -2.12, 254.57 -1.22, 305.45 -0.8" stroke="#000000" stroke-width="1" fill="none"></path></g><g transform="translate(811.9414369509573 45.78373549202661) rotate(0 152.95883162574512 -0.48515639087732154)"><path d="M276.37 9.25 C287.6 7.31, 294.6 2.95, 307.4 -2.14 M277.7 8.5 C288.32 5.74, 299.85 0.45, 304.78 -1.74" stroke="#000000" stroke-width="1" fill="none"></path></g><g transform="translate(811.9414369509573 45.78373549202661) rotate(0 152.95883162574512 -0.48515639087732154)"><path d="M276.49 -11.27 C287.77 -6.61, 294.73 -4.35, 307.4 -2.14 M277.83 -12.02 C288.54 -6.64, 300.03 -3.79, 304.78 -1.74" stroke="#000000" stroke-width="1" fill="none"></path></g></g><mask></mask><g stroke-linecap="round"><g transform="translate(1118.377069444186 86.19445448629801) rotate(0 -153.3976231927345 0.37901691657957315)"><path d="M0.13 -0.74 C-50.96 -0.58, -254.88 0.75, -306.13 1.02 M-1.26 1.49 C-52.52 1.34, -256.3 -0.11, -306.93 -0.52" stroke="#000000" stroke-width="1" fill="none"></path></g><g transform="translate(1118.377069444186 86.19445448629801) rotate(0 -153.3976231927345 0.37901691657957315)"><path d="M-279.88 -10.07 C-286.26 -8.77, -295.97 -1.84, -307.68 -0.32 M-278.74 -10.28 C-286.03 -8.59, -293.81 -6.5, -306.58 -0.68" stroke="#000000" stroke-width="1" fill="none"></path></g><g transform="translate(1118.377069444186 86.19445448629801) rotate(0 -153.3976231927345 0.37901691657957315)"><path d="M-280.04 10.45 C-286.38 4.88, -296.03 4.94, -307.68 -0.32 M-278.9 10.24 C-286.22 6.66, -293.96 3.48, -306.58 -0.68" stroke="#000000" stroke-width="1" fill="none"></path></g></g><mask></mask><g stroke-linecap="round"><g transform="translate(682.9781784885561 374.6372920541806) rotate(0 218.58696475322745 -2.431232688269631)"><path d="M-0.86 -1.01 C71.74 -1.88, 362.78 -5.13, 435.76 -5.94 M0.88 1.07 C73.85 0.38, 365.43 -3.89, 438.04 -4.89" stroke="#000000" stroke-width="1" fill="none"></path></g><g transform="translate(682.9781784885561 374.6372920541806) rotate(0 218.58696475322745 -2.431232688269631)"><path d="M408.31 4.39 C417.27 3.39, 426.22 0.71, 437.96 -5.38 M410.62 5.72 C416.53 2.91, 423.52 0.95, 437.33 -4.94" stroke="#000000" stroke-width="1" fill="none"></path></g><g transform="translate(682.9781784885561 374.6372920541806) rotate(0 218.58696475322745 -2.431232688269631)"><path d="M408.02 -16.12 C416.95 -10.7, 426 -6.95, 437.96 -5.38 M410.33 -14.8 C416.17 -12.56, 423.23 -9.46, 437.33 -4.94" stroke="#000000" stroke-width="1" fill="none"></path></g></g><mask></mask><g stroke-linecap="round"><g transform="translate(684.1613276487617 373.4541428939751) rotate(0 -207.87809423004822 -0.17462074723445653)"><path d="M0.24 -0.81 C-68.84 -0.66, -345.68 0.1, -415.13 0.17 M-1.1 1.38 C-70.26 1.22, -347.16 -1.65, -415.99 -1.73" stroke="#000000" stroke-width="1" fill="none"></path></g><g transform="translate(684.1613276487617 373.4541428939751) rotate(0 -207.87809423004822 -0.17462074723445653)"><path d="M-389.09 -11.55 C-394.04 -11.17, -401.87 -6.61, -417.97 -0.01 M-388.73 -11.59 C-393.75 -9.5, -399.56 -7.93, -415.28 -2.34" stroke="#000000" stroke-width="1" fill="none"></path></g><g transform="translate(684.1613276487617 373.4541428939751) rotate(0 -207.87809423004822 -0.17462074723445653)"><path d="M-389.22 8.97 C-394.01 4.31, -401.82 3.83, -417.97 -0.01 M-388.86 8.93 C-393.96 6.58, -399.74 3.72, -415.28 -2.34" stroke="#000000" stroke-width="1" fill="none"></path></g></g><mask></mask><g transform="translate(81.93840510415413 37.439781395608605) rotate(0 52.000003814697266 12.5)"><text x="0" y="0" font-family="Virgil, HanziPen SC, Cangnanshoujiti, KaiTi, Segoe UI Emoji" font-size="20px" fill="#000000" text-anchor="start" style="white-space: pre;" direction="ltr" dominant-baseline="text-before-edge">ESP 8266</text></g><g transform="translate(59.45857106024931 83.58259864362373) rotate(0 75.27000427246094 12.5)"><text x="0" y="0" font-family="Virgil, HanziPen SC, Cangnanshoujiti, KaiTi, Segoe UI Emoji" font-size="20px" fill="#000000" text-anchor="start" style="white-space: pre;" direction="ltr" dominant-baseline="text-before-edge">(Motion Sensor)</text></g><g stroke-linecap="round"><g transform="translate(141.09586311442996 130.90856505184433) rotate(0 -0.27449629719369284 83.22066024343137)"><path d="M-0.99 -0.17 C-1.2 27.77, -0.39 139.88, -0.2 167.75 M0.7 -1.3 C0.21 26.3, -1.05 137.82, -1.25 166.11" stroke="#000000" stroke-width="1" fill="none"></path></g><g transform="translate(141.09586311442996 130.90856505184433) rotate(0 -0.27449629719369284 83.22066024343137)"><path d="M-11.52 137.49 C-5.77 149.3, -3.09 159.86, 0.67 166.43 M-10.67 138.54 C-7.82 148.48, -3.17 159.68, -1.26 166.01" stroke="#000000" stroke-width="1" fill="none"></path></g><g transform="translate(141.09586311442996 130.90856505184433) rotate(0 -0.27449629719369284 83.22066024343137)"><path d="M9 137.69 C6.72 149.25, 1.37 159.73, 0.67 166.43 M9.85 138.74 C4.84 148.45, 1.63 159.57, -1.26 166.01" stroke="#000000" stroke-width="1" fill="none"></path></g></g><mask></mask><g mask="url(#mask-DAnoc6yiDAribsfh5ViNY)" stroke-linecap="round"><g transform="translate(1257.988670348437 134.45801253246088) rotate(0 2.7476911992790747 87.60213756263933)"><path d="M0.2 0.1 C1.43 29.63, 5.63 146.82, 6.65 176.1 M-1.15 -0.9 C0.04 28.41, 4.94 145.38, 6.09 174.5" stroke="#000000" stroke-width="1" fill="none"></path></g><g transform="translate(1257.988670348437 134.45801253246088) rotate(0 2.7476911992790747 87.60213756263933)"><path d="M-5.15 147.98 C-1.15 154.06, 1.11 160, 5.21 174.74 M-5.49 146.72 C-1.37 155.83, 0.98 163, 6.17 174.19" stroke="#000000" stroke-width="1" fill="none"></path></g><g transform="translate(1257.988670348437 134.45801253246088) rotate(0 2.7476911992790747 87.60213756263933)"><path d="M15.35 147.14 C14.39 153.46, 11.71 159.6, 5.21 174.74 M15.02 145.88 C12.88 155.16, 8.97 162.59, 6.17 174.19" stroke="#000000" stroke-width="1" fill="none"></path></g></g><mask id="mask-DAnoc6yiDAribsfh5ViNY"><rect x="0" y="0" fill="#fff" width="1363.9044161494642" height="409.56408824287723"></rect><rect x="1205.0765405023685" y="209.51105038766906" fill="#000" width="111.74000549316406" height="25" opacity="1"></rect></mask><g transform="translate(1205.0765405023683 209.511050387669) rotate(0 55.659821045347485 12.549099707431154)"><text x="55.87000274658203" y="0" font-family="Virgil, HanziPen SC, Cangnanshoujiti, KaiTi, Segoe UI Emoji" font-size="20px" fill="#000000" text-anchor="middle" style="white-space: pre;" direction="ltr" dominant-baseline="text-before-edge">HTTP GET</text></g><g transform="translate(341.0480711891621 11.410499871087268) rotate(0 68.3500061035156 12.5)"><text x="0" y="0" font-family="Virgil, HanziPen SC, Cangnanshoujiti, KaiTi, Segoe UI Emoji" font-size="20px" fill="#000000" text-anchor="start" style="white-space: pre;" direction="ltr" dominant-baseline="text-before-edge">MQTT Publish</text></g><g transform="translate(905.6828657955973 97.11188016814509) rotate(0 68.35000610351562 12.5)"><text x="0" y="0" font-family="Virgil, HanziPen SC, Cangnanshoujiti, KaiTi, Segoe UI Emoji" font-size="20px" fill="#000000" text-anchor="start" style="white-space: pre;" direction="ltr" dominant-baseline="text-before-edge">MQTT Publish</text></g><g transform="translate(341.0480711891621 103.69613436711751) rotate(0 80.12001037597653 12.5)"><text x="0" y="0" font-family="Virgil, HanziPen SC, Cangnanshoujiti, KaiTi, Segoe UI Emoji" font-size="20px" fill="#000000" text-anchor="start" style="white-space: pre;" direction="ltr" dominant-baseline="text-before-edge">MQTT Subscribe</text></g><g transform="translate(890.3634140425197 14.291438953758984) rotate(0 80.12001037597662 12.5)"><text x="0" y="0" font-family="Virgil, HanziPen SC, Cangnanshoujiti, KaiTi, Segoe UI Emoji" font-size="20px" fill="#000000" text-anchor="start" style="white-space: pre;" direction="ltr" dominant-baseline="text-before-edge">MQTT Subscribe</text></g><g transform="translate(533.9013843026612 341.5091155684261) rotate(0 178.07226186814353 16.64102206071928)"><text x="0" y="0" font-family="Virgil, HanziPen SC, Cangnanshoujiti, KaiTi, Segoe UI Emoji" font-size="26.625635297150872px" fill="#000000" text-anchor="start" style="white-space: pre;" direction="ltr" dominant-baseline="text-before-edge">MongoDB CRUD Operations</text></g><g transform="translate(93.76989670620935 342.69226472863164) rotate(0 39.65999984741211 12.5)"><text x="0" y="0" font-family="Virgil, HanziPen SC, Cangnanshoujiti, KaiTi, Segoe UI Emoji" font-size="20px" fill="#000000" text-anchor="start" style="white-space: pre;" direction="ltr" dominant-baseline="text-before-edge">Backend</text></g><g transform="translate(87.85415090518177 381.7361870154137) rotate(0 45.18000411987305 12.500000000000028)"><text x="0" y="0" font-family="Virgil, HanziPen SC, Cangnanshoujiti, KaiTi, Segoe UI Emoji" font-size="20px" fill="#000000" text-anchor="start" style="white-space: pre;" direction="ltr" dominant-baseline="text-before-edge">(Node.Js)</text></g><g transform="translate(620.2712729976638 61.10276459971891) rotate(0 67.54000091552734 12.5)"><text x="0" y="0" font-family="Virgil, HanziPen SC, Cangnanshoujiti, KaiTi, Segoe UI Emoji" font-size="20px" fill="#000000" text-anchor="start" style="white-space: pre;" direction="ltr" dominant-baseline="text-before-edge">MQTT Broker</text></g><g transform="translate(1169.2524833330233 57.55331711910239) rotate(0 76.32000732421875 12.5)"><text x="0" y="0" font-family="Virgil, HanziPen SC, Cangnanshoujiti, KaiTi, Segoe UI Emoji" font-size="20px" fill="#000000" text-anchor="start" style="white-space: pre;" direction="ltr" dominant-baseline="text-before-edge">React Frontend</text></g><g transform="translate(1216.5784497412435 350.97430885007026) rotate(0 43.48999786376953 12.5)"><text x="0" y="0" font-family="Virgil, HanziPen SC, Cangnanshoujiti, KaiTi, Segoe UI Emoji" font-size="20px" fill="#000000" text-anchor="start" style="white-space: pre;" direction="ltr" dominant-baseline="text-before-edge">MongoDB</text></g><g transform="translate(1213.029002260627 382.9193361756192) rotate(0 49.44000244140625 12.499999999999972)"><text x="0" y="0" font-family="Virgil, HanziPen SC, Cangnanshoujiti, KaiTi, Segoe UI Emoji" font-size="20px" fill="#000000" text-anchor="start" style="white-space: pre;" direction="ltr" dominant-baseline="text-before-edge">Database</text></g><g transform="translate(410.85387164128764 211.3627079458194) rotate(0 311.10256101376933 26.106215342363413)"><text x="0" y="0" font-family="Virgil, HanziPen SC, Cangnanshoujiti, KaiTi, Segoe UI Emoji" font-size="41.76994454778146px" fill="#000000" text-anchor="start" style="white-space: pre;" direction="ltr" dominant-baseline="text-before-edge">Motion Detection Architecture</text></g></svg>